<svg id="Compress" xmlns="http://www.w3.org/2000/svg" viewBox="0 0 314.9 275"><defs><style>.cls-1{fill:#1255da;}</style></defs><path class="cls-1" d="M139.1,112.5H118.5c38.8,84.4,38.8,190.6,0,275h20.6C177.9,303.1,177.9,196.9,139.1,112.5Z" transform="translate(-92.5 -112.5)"/><path class="cls-1" d="M167.2,112.5a586.3,586.3,0,0,1,0,275h20.7a589,589,0,0,0,0-275Z" transform="translate(-92.5 -112.5)"/><rect class="cls-1" x="127.5" width="22.7" height="275"/><rect class="cls-1" x="165.9" width="22.7" height="275"/><path class="cls-1" d="M334,112.5H313.4a586.3,586.3,0,0,0,0,275H334A586.3,586.3,0,0,1,334,112.5Z" transform="translate(-92.5 -112.5)"/><path class="cls-1" d="M386.8,112.5H366.2c-44.7,82-44.7,193,0,275h20.6C342.1,305.5,342.1,194.5,386.8,112.5Z" transform="translate(-92.5 -112.5)"/><polygon class="cls-1" points="0 169.6 24 137.5 0 105.4 0 169.6"/><polygon class="cls-1" points="314.9 169.6 314.9 105.4 290.9 137.5 314.9 169.6"/></svg>