<svg id="Track" xmlns="http://www.w3.org/2000/svg" viewBox="0 0 307.9 308"><path d="M403.1,252.6H382.8a133.8,133.8,0,0,1-41.3,92.9,132.4,132.4,0,0,1-95.7,37.1c-67.9-1.9-123.1-54.8-128.3-123.3-2.8-36.6,10.3-73.3,35.9-100.7s58.5-41.5,93.4-42V96.5A86.5,86.5,0,0,0,238,96c-46.4,0-103.3,38.3-126.9,87.4C82.2,243.2,95.9,316.7,144.4,362s122.5,55.2,180.9,22C373.1,356.8,410.2,293.6,403.1,252.6Z" transform="translate(-96.1 -96)"/><path d="M339.7,244.3c1.4,24.7-7.1,48.9-23.6,66.6-32.7,35.1-85.3,39.2-122.3,9.5-18.4-14.7-29.5-33.7-32.9-56.5-4.5-29.1,4.1-55.5,25.4-78.2l-1.3-1.5-12.8-13.7c-26.9,24.5-44.5,72.5-26.5,119S210,365,260.5,360.8c47.9-3.9,89.4-41.7,98.7-89.9,8.8-45.7-13.2-88.3-38.9-106.3l-12.4,15.8C326.9,197.4,338.2,219.9,339.7,244.3Z" transform="translate(-96.1 -96)"/><path d="M195.5,210l17,11.5c12.5-14.2,26.1-17.7,35.5-18.1,13-.5,26.5,4.9,35.2,14a47.2,47.2,0,0,1,13.1,34.4A46,46,0,0,1,281,284.4a44.3,44.3,0,0,1-34.7,11.9c-16.7-1.3-29.6-9.9-38.4-25.4l-19.1,8.2c11.5,26.7,42.9,43.1,72.6,37.7a67.7,67.7,0,0,0,56.2-66.3c.5-32.6-22.9-60.9-55.6-67.3C236.7,178.3,204.7,191.4,195.5,210Z" transform="translate(-96.1 -96)"/></svg>